<?xml version="1.0" standalone="no"?>
<!DOCTYPE svg PUBLIC "-//W3C//DTD SVG 20010904//EN"
 "http://www.w3.org/TR/2001/REC-SVG-20010904/DTD/svg10.dtd">
<svg version="1.0" xmlns="http://www.w3.org/2000/svg"
 width="512.000000pt" height="512.000000pt" viewBox="0 0 512.000000 512.000000"
 preserveAspectRatio="xMidYMid meet">
<metadata>
Created by potrace 1.14, written by Peter Selinger 2001-2017
</metadata>
<g transform="translate(0.000000,512.000000) scale(0.100000,-0.100000)"
fill="#000000" stroke="none">
<path d="M3169 4476 c-2 -2 -42 -7 -89 -10 -47 -3 -96 -8 -110 -10 -14 -3 -43
-7 -65 -10 -391 -50 -797 -172 -1170 -350 -131 -63 -381 -199 -395 -215 -3 -3
-57 -41 -120 -83 -351 -235 -669 -552 -883 -879 -149 -228 -241 -436 -303
-684 -37 -151 -40 -433 -5 -571 65 -258 193 -462 406 -644 49 -42 195 -136
270 -173 144 -71 397 -151 548 -172 27 -3 59 -8 70 -11 67 -12 197 -19 397
-19 272 0 389 10 640 51 28 5 161 31 241 49 222 48 604 187 842 307 164 82
507 289 527 318 3 3 12 11 21 16 9 5 33 23 54 39 21 17 64 50 95 76 87 68 112
92 266 244 295 293 498 600 615 926 74 207 99 359 94 569 -5 190 -34 300 -126
486 -192 384 -637 656 -1194 729 -27 4 -61 9 -75 11 -30 6 -546 14 -551 10z"/>
<path d="M4885 4472 c-80 -14 -134 -51 -165 -113 -68 -132 12 -287 160 -311
48 -7 119 14 159 48 52 45 70 79 77 148 9 84 -33 163 -109 203 -37 19 -93 31
-122 25z"/>
</g>
</svg>
